<svg id="visual" viewBox="0 0 900 600" width="900" height="600" xmlns="http://www.w3.org/2000/svg" xmlns:xlink="http://www.w3.org/1999/xlink" version="1.1"><rect x="0" y="0" width="900" height="600" fill="#001220"></rect><path d="M0 431L21.5 431.5C43 432 86 433 128.8 436C171.7 439 214.3 444 257.2 430.3C300 416.7 343 384.3 385.8 379.7C428.7 375 471.3 398 514.2 409.2C557 420.3 600 419.7 642.8 423.3C685.7 427 728.3 435 771.2 434C814 433 857 423 878.5 418L900 413L900 601L878.5 601C857 601 814 601 771.2 601C728.3 601 685.7 601 642.8 601C600 601 557 601 514.2 601C471.3 601 428.7 601 385.8 601C343 601 300 601 257.2 601C214.3 601 171.7 601 128.8 601C86 601 43 601 21.5 601L0 601Z" fill="#cfe6f3"></path><path d="M0 458L21.5 453.7C43 449.3 86 440.7 128.8 440C171.7 439.3 214.3 446.7 257.2 450.8C300 455 343 456 385.8 449C428.7 442 471.3 427 514.2 426.3C557 425.7 600 439.3 642.8 438.2C685.7 437 728.3 421 771.2 417.5C814 414 857 423 878.5 427.5L900 432L900 601L878.5 601C857 601 814 601 771.2 601C728.3 601 685.7 601 642.8 601C600 601 557 601 514.2 601C471.3 601 428.7 601 385.8 601C343 601 300 601 257.2 601C214.3 601 171.7 601 128.8 601C86 601 43 601 21.5 601L0 601Z" fill="#b4d8ed"></path><path d="M0 511L21.5 499.8C43 488.7 86 466.3 128.8 463.8C171.7 461.3 214.3 478.7 257.2 486.2C300 493.7 343 491.3 385.8 481.5C428.7 471.7 471.3 454.3 514.2 449.2C557 444 600 451 642.8 460.7C685.7 470.3 728.3 482.7 771.2 491.5C814 500.3 857 505.7 878.5 508.3L900 511L900 601L878.5 601C857 601 814 601 771.2 601C728.3 601 685.7 601 642.8 601C600 601 557 601 514.2 601C471.3 601 428.7 601 385.8 601C343 601 300 601 257.2 601C214.3 601 171.7 601 128.8 601C86 601 43 601 21.5 601L0 601Z" fill="#97cbe7"></path><path d="M0 540L21.5 530.5C43 521 86 502 128.8 500C171.7 498 214.3 513 257.2 520.5C300 528 343 528 385.8 523.5C428.7 519 471.3 510 514.2 510.8C557 511.7 600 522.3 642.8 527.5C685.7 532.7 728.3 532.3 771.2 524.8C814 517.3 857 502.7 878.5 495.3L900 488L900 601L878.5 601C857 601 814 601 771.2 601C728.3 601 685.7 601 642.8 601C600 601 557 601 514.2 601C471.3 601 428.7 601 385.8 601C343 601 300 601 257.2 601C214.3 601 171.7 601 128.8 601C86 601 43 601 21.5 601L0 601Z" fill="#77bee1"></path><path d="M0 556L21.5 556.8C43 557.7 86 559.3 128.8 558C171.7 556.7 214.3 552.3 257.2 553C300 553.7 343 559.3 385.8 562.2C428.7 565 471.3 565 514.2 563.7C557 562.3 600 559.7 642.8 558.8C685.7 558 728.3 559 771.2 553.7C814 548.3 857 536.7 878.5 530.8L900 525L900 601L878.5 601C857 601 814 601 771.2 601C728.3 601 685.7 601 642.8 601C600 601 557 601 514.2 601C471.3 601 428.7 601 385.8 601C343 601 300 601 257.2 601C214.3 601 171.7 601 128.8 601C86 601 43 601 21.5 601L0 601Z" fill="#51b1db"></path></svg>