<svg id="visual" viewBox="0 0 900 600" width="900" height="600" xmlns="http://www.w3.org/2000/svg" xmlns:xlink="http://www.w3.org/1999/xlink" version="1.1"><rect x="0" y="0" width="900" height="600" fill="#001220"></rect><path d="M0 441L15 446.3C30 451.7 60 462.3 90 463.7C120 465 150 457 180 456.2C210 455.3 240 461.7 270 461.3C300 461 330 454 360 452.7C390 451.3 420 455.7 450 458.5C480 461.3 510 462.7 540 465C570 467.3 600 470.7 630 468.7C660 466.7 690 459.3 720 456.7C750 454 780 456 810 454.7C840 453.3 870 448.7 885 446.3L900 444L900 601L885 601C870 601 840 601 810 601C780 601 750 601 720 601C690 601 660 601 630 601C600 601 570 601 540 601C510 601 480 601 450 601C420 601 390 601 360 601C330 601 300 601 270 601C240 601 210 601 180 601C150 601 120 601 90 601C60 601 30 601 15 601L0 601Z" fill="#cfe6f3"></path><path d="M0 484L15 483.7C30 483.3 60 482.7 90 482.7C120 482.7 150 483.3 180 483.3C210 483.3 240 482.7 270 484.7C300 486.7 330 491.3 360 493.2C390 495 420 494 450 491.5C480 489 510 485 540 485.5C570 486 600 491 630 494.8C660 498.7 690 501.3 720 497C750 492.7 780 481.3 810 476.3C840 471.3 870 472.7 885 473.3L900 474L900 601L885 601C870 601 840 601 810 601C780 601 750 601 720 601C690 601 660 601 630 601C600 601 570 601 540 601C510 601 480 601 450 601C420 601 390 601 360 601C330 601 300 601 270 601C240 601 210 601 180 601C150 601 120 601 90 601C60 601 30 601 15 601L0 601Z" fill="#b4d8ed"></path><path d="M0 512L15 511.2C30 510.3 60 508.7 90 508C120 507.3 150 507.7 180 506.3C210 505 240 502 270 502C300 502 330 505 360 506.3C390 507.7 420 507.3 450 508C480 508.7 510 510.3 540 514.2C570 518 600 524 630 525.2C660 526.3 690 522.7 720 521C750 519.3 780 519.7 810 519.3C840 519 870 518 885 517.5L900 517L900 601L885 601C870 601 840 601 810 601C780 601 750 601 720 601C690 601 660 601 630 601C600 601 570 601 540 601C510 601 480 601 450 601C420 601 390 601 360 601C330 601 300 601 270 601C240 601 210 601 180 601C150 601 120 601 90 601C60 601 30 601 15 601L0 601Z" fill="#97cbe7"></path><path d="M0 526L15 528.3C30 530.7 60 535.3 90 535.7C120 536 150 532 180 532C210 532 240 536 270 540.2C300 544.3 330 548.7 360 550.7C390 552.7 420 552.3 450 553.2C480 554 510 556 540 554.2C570 552.3 600 546.7 630 542.3C660 538 690 535 720 537.8C750 540.7 780 549.3 810 549.7C840 550 870 542 885 538L900 534L900 601L885 601C870 601 840 601 810 601C780 601 750 601 720 601C690 601 660 601 630 601C600 601 570 601 540 601C510 601 480 601 450 601C420 601 390 601 360 601C330 601 300 601 270 601C240 601 210 601 180 601C150 601 120 601 90 601C60 601 30 601 15 601L0 601Z" fill="#77bee1"></path><path d="M0 580L15 576.7C30 573.3 60 566.7 90 563.7C120 560.7 150 561.3 180 563.5C210 565.7 240 569.3 270 569C300 568.7 330 564.3 360 565.3C390 566.3 420 572.7 450 573.5C480 574.3 510 569.7 540 568.8C570 568 600 571 630 573.3C660 575.7 690 577.3 720 577.5C750 577.7 780 576.3 810 572.7C840 569 870 563 885 560L900 557L900 601L885 601C870 601 840 601 810 601C780 601 750 601 720 601C690 601 660 601 630 601C600 601 570 601 540 601C510 601 480 601 450 601C420 601 390 601 360 601C330 601 300 601 270 601C240 601 210 601 180 601C150 601 120 601 90 601C60 601 30 601 15 601L0 601Z" fill="#51b1db"></path></svg>